<?xml version="1.0" encoding="UTF-8" standalone="no"?>
<svg
   class="ionicon"
   viewBox="0 0 32 32"
   version="1.1"
   id="add"
   sodipodi:docname="add-circle.svg"
   inkscape:version="1.3 (0e150ed6c4, 2023-07-21)"
   xmlns:inkscape="http://www.inkscape.org/namespaces/inkscape"
   xmlns:sodipodi="http://sodipodi.sourceforge.net/DTD/sodipodi-0.dtd"
   xmlns="http://www.w3.org/2000/svg"
   xmlns:svg="http://www.w3.org/2000/svg">
  <sodipodi:namedview
     id="namedview1"
     pagecolor="#ffffff"
     bordercolor="#000000"
     borderopacity="0.25"
     inkscape:showpageshadow="2"
     inkscape:pageopacity="0.0"
     inkscape:pagecheckerboard="0"
     inkscape:deskcolor="#d1d1d1"
     inkscape:zoom="3.0898438"
     inkscape:cx="255.83818"
     inkscape:cy="256"
     inkscape:window-width="4300"
     inkscape:window-height="1771"
     inkscape:window-x="2391"
     inkscape:window-y="-1"
     inkscape:window-maximized="1"
     inkscape:current-layer="add" />
  <defs
     id="defs1" />
  <path
     d="M 16,0 C 7.1776923,0 0,7.1776923 0,16 0,24.822308 7.1776923,32 16,32 24.822308,32 32,24.822308 32,16 32,7.1776923 24.822308,0 16,0 Z m 6.153846,17.230769 h -4.923077 v 4.923077 a 1.2307692,1.2307692 0 0 1 -2.461538,0 V 17.230769 H 9.8461538 a 1.2307692,1.2307692 0 0 1 0,-2.461538 H 14.769231 V 9.8461538 a 1.2307692,1.2307692 0 0 1 2.461538,0 v 4.9230772 h 4.923077 a 1.2307692,1.2307692 0 0 1 0,2.461538 z"
     id="path1"
     style="stroke-width:0.076923" />
</svg>
